<svg width="1280" height="418" viewBox="0 0 1280 418" fill="none" xmlns="http://www.w3.org/2000/svg" xmlns:xlink="http://www.w3.org/1999/xlink">
<mask id="mask0_80_1039" style="mask-type:alpha" maskUnits="userSpaceOnUse" x="0" y="0" width="1280" height="418">
<rect width="1280" height="418" fill="url(#paint0_linear_80_1039)"/>
</mask>
<g mask="url(#mask0_80_1039)">
<rect width="1280" height="418" fill="url(#pattern0_80_1039)" fill-opacity="0.4"/>
</g>
<defs>
<linearGradient id="paint0_linear_80_1039" x1="640" y1="0" x2="640" y2="418" gradientUnits="userSpaceOnUse">
<stop stop-color="#C4C4C4" stop-opacity="0.1"/>
<stop offset="1" stop-color="#5E5E5E" stop-opacity="0.8"/>
</linearGradient>
<pattern id="pattern0_80_1039" patternUnits="userSpaceOnUse" patternTransform="matrix(13.26 0 0 13.26 637.798 206.798)" preserveAspectRatio="none" viewBox="0.797653 0.797653 13.26 13.26" width="1" height="1">
<g id="pattern0_80_1039_inner">
<path d="M2.62297 1.06406C2.74883 0.70885 3.25117 0.70885 3.37703 1.06406L3.49828 1.40625C3.67958 1.91791 4.08209 2.32042 4.59375 2.50172L4.93594 2.62297C5.29115 2.74883 5.29115 3.25117 4.93594 3.37703L4.59375 3.49828C4.08209 3.67958 3.67958 4.08209 3.49828 4.59375L3.37703 4.93594C3.25117 5.29115 2.74883 5.29115 2.62297 4.93594L2.50172 4.59375C2.32042 4.08209 1.91791 3.67958 1.40625 3.49828L1.06406 3.37703C0.70885 3.25117 0.70885 2.74883 1.06406 2.62297L1.40625 2.50172C1.91791 2.32042 2.32042 1.91791 2.50172 1.40625L2.62297 1.06406Z" fill="#D2C8BC"/>
</g>
</pattern></defs>
</svg>
