<svg width="26" height="26" viewBox="0 0 26 26" fill="none" xmlns="http://www.w3.org/2000/svg">
<path d="M24.0799 11.0327C24.1848 11.5895 24.2373 12.2961 24.2373 13.1526C24.2373 13.9984 24.0379 14.9566 23.6392 16.0272C23.251 17.0871 22.7054 18.1095 22.0024 19.0945C21.3099 20.0688 20.4863 20.9788 19.5315 21.8246C18.5872 22.6597 17.5642 23.3877 16.4625 24.0086C14.0912 25.3362 11.699 26 9.28571 26C4.85795 26 1.98305 24.4155 0.661017 21.2465C0.220339 20.1865 0 19.0463 0 17.8258C0 16.6053 0.157385 15.4705 0.472155 14.4212C0.797417 13.3613 1.24859 12.3282 1.82567 11.3218C2.41324 10.3047 3.10573 9.31975 3.90315 8.36689C4.70056 7.41404 5.57667 6.52007 6.53148 5.68499C7.49677 4.8392 8.51977 4.06836 9.60048 3.37245C10.6917 2.67655 11.8091 2.077 12.9528 1.57381C15.3765 0.524604 17.6848 0 19.8777 0C23.8858 0 25.8898 0.958205 25.8898 2.87461C25.8898 3.42063 25.4911 4.00412 24.6937 4.62508C23.8123 3.38316 22.59 2.51596 21.0266 2.02347C20.4915 1.86288 19.8358 1.78258 19.0593 1.78258C18.2829 1.78258 17.3858 1.94317 16.368 2.26436C15.3503 2.58555 14.364 3.02985 13.4092 3.59728C12.4544 4.16471 11.5573 4.84455 10.7179 5.63681C9.87853 6.41837 9.14931 7.28021 8.53027 8.22236C7.17675 10.2351 6.5 12.2639 6.5 14.3088C6.5 16.3537 6.99314 17.8954 7.97942 18.9339C8.97619 19.9617 10.3979 20.4756 12.2446 20.4756C13.5666 20.4756 14.9516 20.1384 16.3995 19.4639C18.7813 18.3397 20.4181 16.7606 21.3099 14.7264C21.6247 14.0198 21.8031 13.2703 21.845 12.4781C19.5472 13.7093 17.391 14.3249 15.3765 14.3249C13.3725 14.3249 12.0137 13.8217 11.3002 12.8153C11.0484 12.462 10.9225 12.0712 10.9225 11.643C10.9225 11.2147 11.0694 10.8293 11.3632 10.4867C11.6675 10.1441 12.0662 9.82829 12.5593 9.53922C13.063 9.25015 13.6295 8.99321 14.2591 8.76838C14.8886 8.54355 15.5391 8.35083 16.2107 8.19024C17.5851 7.85835 18.8127 7.6924 19.8935 7.6924C21.5932 7.6924 22.7893 8.26519 23.4818 9.41075C24.0589 9.00391 24.657 8.51678 25.276 7.94935C25.7587 8.36689 26 8.73626 26 9.05744C26 9.16451 25.8479 9.39469 25.5436 9.74799C25.2498 10.0906 24.7619 10.5188 24.0799 11.0327ZM21.6404 10.5831C21.3467 9.82294 20.7014 9.44287 19.7046 9.44287C18.1517 9.44287 16.709 9.71052 15.3765 10.2458C14.726 10.5028 14.4007 10.7758 14.4007 11.0649C14.4007 11.6858 15.1247 11.9963 16.5726 11.9963C18.178 11.9963 19.8672 11.5252 21.6404 10.5831Z" fill="black"/>
</svg>
