<svg width="435" height="435" viewBox="0 0 435 435" fill="none" xmlns="http://www.w3.org/2000/svg">
<rect width="435" height="435" rx="200" fill="black"/>
<g clip-path="url(#clip0_293_60)">
<path fill-rule="evenodd" clip-rule="evenodd" d="M171.194 121.746C178.193 104.001 203.307 104.001 210.306 121.746L222.902 153.685C223.247 154.56 223.94 155.253 224.816 155.598L256.753 168.194C274.499 175.193 274.499 200.307 256.753 207.306L224.816 219.902C223.94 220.247 223.247 220.94 222.902 221.816L210.306 253.753C203.307 271.499 178.193 271.499 171.194 253.753L158.598 221.816C158.253 220.94 157.56 220.247 156.685 219.902L124.746 207.306C107.001 200.307 107.001 175.193 124.746 168.194L156.685 155.598C157.56 155.253 158.253 154.56 158.598 153.685L171.194 121.746ZM193.91 128.213C192.779 125.346 188.721 125.346 187.59 128.213L174.994 160.151C172.857 165.569 168.569 169.857 163.151 171.994L131.213 184.59C128.346 185.721 128.346 189.779 131.213 190.91L163.151 203.506C168.569 205.643 172.857 209.932 174.994 215.348L187.59 247.287C188.721 250.154 192.779 250.154 193.91 247.287L206.506 215.348C208.643 209.932 212.932 205.643 218.348 203.506L250.287 190.91C253.154 189.779 253.154 185.721 250.287 184.59L218.348 171.994C212.932 169.857 208.643 165.569 206.506 160.151L193.91 128.213ZM270.542 235.608C275.626 222.714 293.874 222.714 298.958 235.608L307.99 258.51L330.892 267.542C343.786 272.626 343.786 290.874 330.892 295.958L307.99 304.99L298.958 327.892C293.874 340.786 275.626 340.786 270.542 327.892L261.51 304.99L238.608 295.958C225.714 290.874 225.714 272.626 238.608 267.542L261.51 258.51L270.542 235.608ZM284.75 247.62L277.531 265.926C275.977 269.863 272.863 272.977 268.926 274.531L250.62 281.75L268.926 288.969C272.863 290.523 275.977 293.637 277.531 297.574L284.75 315.88L291.969 297.574C293.523 293.637 296.637 290.523 300.574 288.969L318.88 281.75L300.574 274.531C296.637 272.977 293.523 269.863 291.969 265.926L284.75 247.62Z" fill="white"/>
</g>
<defs>
<clipPath id="clip0_293_60">
<rect width="306" height="306" fill="white" transform="translate(85 100)"/>
</clipPath>
</defs>
</svg>
