<svg width="72" height="18" viewBox="0 0 72 18" fill="none" xmlns="http://www.w3.org/2000/svg">
<path d="M4.49504 17.9809C3.92033 17.9809 3.35931 17.9555 2.81197 17.9046C2.27831 17.8664 1.79938 17.7773 1.37519 17.6373C0.951005 17.5101 0.615759 17.3256 0.369455 17.0838C0.123152 16.842 0 16.5302 0 16.1485C0.0273671 15.6649 0.225778 15.2895 0.595234 15.0223C0.951005 14.755 1.42993 14.6214 2.032 14.6214C2.45619 14.6214 2.81881 14.685 3.11984 14.8123C3.42088 14.9523 3.66034 15.1241 3.83823 15.3277C3.68771 15.4295 3.58508 15.5376 3.53035 15.6522C3.4893 15.7667 3.46877 15.894 3.46877 16.0339C3.46877 16.3393 3.61245 16.5557 3.89981 16.6829C4.18716 16.8102 4.60451 16.8738 5.15185 16.8738C5.54867 16.8738 5.92497 16.8165 6.28074 16.702C6.6502 16.5875 6.95123 16.403 7.18385 16.1485C7.41647 15.894 7.53278 15.5695 7.53278 15.175C7.56015 14.7805 7.38911 14.5387 7.01965 14.4496C6.65019 14.3606 6.0618 14.316 5.25447 14.316C4.46083 14.316 3.8177 14.2587 3.3251 14.1442C2.83249 14.0297 2.46988 13.8579 2.23726 13.6288C2.01832 13.3871 1.90201 13.0817 1.88833 12.7126C1.90201 12.2418 2.05937 11.8218 2.36041 11.4528C2.67513 11.0838 3.04459 10.772 3.46877 10.5175C2.93512 10.3139 2.51777 10.0085 2.21673 9.60127C1.92938 9.19406 1.7857 8.68505 1.7857 8.07423C1.7857 7.18346 2.032 6.44539 2.52461 5.86002C3.01722 5.26193 3.67403 4.81654 4.49504 4.52386C5.32973 4.21845 6.23285 4.06575 7.20438 4.06575C7.6833 4.06575 8.07328 4.09756 8.37432 4.16119C8.68904 4.21209 8.96271 4.26935 9.19533 4.33298C9.42795 4.38388 9.67425 4.40933 9.93424 4.40933C10.4405 4.40933 10.8168 4.27572 11.0631 4.00848C11.3094 3.74125 11.4257 3.42312 11.4121 3.05408C11.4121 2.74867 11.3163 2.48144 11.1247 2.25239C11.33 2.06151 11.5557 1.92153 11.802 1.83245C12.0483 1.73065 12.3015 1.67975 12.5615 1.67975C12.9173 1.67975 13.2046 1.77519 13.4235 1.96607C13.6425 2.14422 13.7519 2.40509 13.7519 2.74867C13.7519 3.14316 13.6288 3.53128 13.3825 3.91304C13.1362 4.2948 12.7941 4.6193 12.3562 4.88653C11.9184 5.15376 11.4052 5.31919 10.8168 5.38282C10.94 5.5737 11.0358 5.78367 11.1042 6.01272C11.1726 6.24178 11.2068 6.49629 11.2068 6.77625C11.2068 7.64157 10.9673 8.386 10.4884 9.00954C10.0095 9.62036 9.35953 10.0848 8.53852 10.403C7.73119 10.7084 6.82124 10.8611 5.80866 10.8611C5.67182 10.8611 5.5213 10.8611 5.3571 10.8611C5.20658 10.8484 5.04922 10.8356 4.88502 10.8229C4.78923 10.8993 4.70713 10.982 4.63872 11.071C4.58398 11.1601 4.55662 11.2683 4.55662 11.3955C4.55662 11.5864 4.68661 11.7073 4.9466 11.7582C5.22027 11.7964 5.62393 11.8155 6.15759 11.8155H7.47121C8.70272 11.8155 9.59215 12.0127 10.1395 12.4072C10.7005 12.789 10.9742 13.3298 10.9605 14.0297C10.9468 14.6914 10.7416 15.2704 10.3447 15.7667C9.96161 16.263 9.44848 16.6702 8.80535 16.9883C8.17591 17.3192 7.48489 17.5673 6.7323 17.7328C5.9797 17.8982 5.23395 17.9809 4.49504 17.9809ZM6.11654 9.8685C6.56809 9.8685 6.93071 9.69671 7.20438 9.35313C7.47805 9.00954 7.6833 8.58961 7.82014 8.09332C7.95697 7.59703 8.02539 7.1071 8.02539 6.62354C8.02539 6.20361 7.94329 5.84093 7.77909 5.53552C7.61488 5.21739 7.32069 5.05832 6.8965 5.05832C6.55441 5.05832 6.26021 5.16649 6.01391 5.38282C5.76761 5.58643 5.56235 5.86002 5.39815 6.20361C5.23395 6.54719 5.1108 6.92259 5.0287 7.3298C4.96028 7.72428 4.93291 8.10604 4.9466 8.47508C4.9466 8.88229 5.03554 9.21951 5.21342 9.48674C5.39131 9.74125 5.69235 9.8685 6.11654 9.8685Z" fill="black"/>
<path d="M16.6673 14.5642C15.8326 14.5642 15.0937 14.4242 14.4506 14.1442C13.8212 13.8643 13.3286 13.438 12.9728 12.8653C12.617 12.28 12.4391 11.5355 12.4391 10.632C12.4391 9.80488 12.5623 9.00318 12.8086 8.22694C13.0686 7.45069 13.4586 6.75079 13.9785 6.12725C14.5122 5.49099 15.1895 4.98833 16.0105 4.6193C16.8315 4.25026 17.8031 4.06575 18.9251 4.06575C19.5135 4.06575 20.054 4.13574 20.5466 4.27571C21.0529 4.40297 21.4634 4.63839 21.7781 4.98197C22.0929 5.31283 22.2502 5.79003 22.2502 6.41357C22.2502 7.06257 22.045 7.62248 21.6345 8.09332C21.2376 8.56416 20.6492 8.93319 19.8693 9.20042C19.103 9.46766 18.1657 9.62672 17.0573 9.67762C16.8794 9.67762 16.6947 9.67762 16.5031 9.67762C16.3253 9.67762 16.1542 9.67762 15.99 9.67762C15.9763 9.83033 15.9626 9.9894 15.949 10.1548C15.9353 10.3075 15.9284 10.4475 15.9284 10.5748C15.9284 11.1347 16.0584 11.5737 16.3184 11.8918C16.5784 12.1972 17.03 12.3499 17.6731 12.3499C18.2067 12.3499 18.7336 12.2418 19.2535 12.0254C19.7735 11.8091 20.1635 11.491 20.4235 11.071C20.615 11.1729 20.745 11.3001 20.8134 11.4528C20.8955 11.5928 20.9366 11.7646 20.9366 11.9682C20.9366 12.4772 20.7382 12.9289 20.3414 13.3234C19.9582 13.7179 19.4383 14.0233 18.7814 14.2397C18.1383 14.456 17.4336 14.5642 16.6673 14.5642ZM16.1132 8.81866C16.5921 8.81866 17.0231 8.75504 17.4062 8.62778C17.8031 8.50053 18.1452 8.32237 18.4325 8.09332C18.7199 7.85154 18.9388 7.56522 19.0893 7.23436C19.2398 6.9035 19.3151 6.53446 19.3151 6.12725C19.3151 5.79639 19.2467 5.54189 19.1098 5.36373C18.9867 5.17285 18.7746 5.07741 18.4736 5.07741C18.2136 5.07741 17.9604 5.16013 17.7141 5.32556C17.4678 5.49099 17.242 5.73277 17.0368 6.0509C16.8452 6.36903 16.6673 6.76352 16.5031 7.23436C16.3526 7.69247 16.2226 8.22057 16.1132 8.81866Z" fill="black"/>
<path d="M30.9964 14.5642C30.367 14.5642 29.8538 14.4178 29.457 14.1251C29.0602 13.8197 28.8618 13.3552 28.8618 12.7317C28.8618 12.4517 28.9028 12.1018 28.9849 11.6819C29.0807 11.2619 29.1833 10.8165 29.2928 10.3457C29.416 9.87487 29.5323 9.40403 29.6417 8.93319C29.7649 8.46235 29.8675 8.02333 29.9496 7.61612C30.0317 7.19618 30.0728 6.84624 30.0728 6.56628C30.0728 6.27359 30.0112 6.03181 29.888 5.84093C29.7649 5.63733 29.5459 5.53552 29.2312 5.53552C28.8207 5.53552 28.4786 5.69459 28.205 6.01272C27.9313 6.33086 27.7055 6.71898 27.5276 7.17709C27.3634 7.63521 27.2334 8.08059 27.1376 8.51326L25.9677 14.1824L22.2937 14.526L24.4283 4.44751L27.425 4.10392L27.1171 5.93637C27.4866 5.27466 27.9929 4.79745 28.636 4.50477C29.2928 4.21209 30.0112 4.06575 30.7911 4.06575C31.6806 4.06575 32.3784 4.2439 32.8847 4.60021C33.391 4.95652 33.6442 5.52916 33.6442 6.31813C33.6442 6.64899 33.6031 7.02439 33.521 7.44433C33.4389 7.86426 33.3363 8.30965 33.2131 8.78049C33.1037 9.2386 32.9942 9.69035 32.8847 10.1357C32.7753 10.5684 32.6795 10.9756 32.5974 11.3574C32.5153 11.7264 32.4742 12.0382 32.4742 12.2927C32.4742 12.5599 32.5358 12.7826 32.6589 12.9608C32.7958 13.1389 33.0284 13.2407 33.3568 13.2662C33.2063 13.7116 32.8984 14.0361 32.4332 14.2397C31.9816 14.456 31.5027 14.5642 30.9964 14.5642Z" fill="black"/>
<path d="M39.2248 14.5451C38.9238 14.5451 38.6638 14.5196 38.4448 14.4687C38.2259 14.4305 37.9522 14.3669 37.6238 14.2778L34.4219 14.0297L36.3923 4.44751L39.4506 4.10392L39.2043 5.63096C39.5464 5.18558 39.9774 4.81018 40.4974 4.50477C41.031 4.19936 41.6536 4.04666 42.3652 4.04666C43.1451 4.04666 43.7677 4.19936 44.233 4.50477C44.7119 4.81018 45.0608 5.24284 45.2798 5.80276C45.4987 6.36267 45.6082 7.02439 45.6082 7.78791C45.6082 8.71686 45.4645 9.58855 45.1771 10.403C44.9035 11.2174 44.493 11.9364 43.9456 12.5599C43.412 13.1835 42.7483 13.6734 41.9547 14.0297C41.161 14.3733 40.2511 14.5451 39.2248 14.5451ZM35.8792 18C35.3592 18 34.935 17.8664 34.6066 17.5992C34.2782 17.3446 34.114 16.9056 34.114 16.2821C34.114 16.1548 34.1277 15.9894 34.155 15.7858C34.1687 15.5949 34.1961 15.3786 34.2371 15.1368C34.2645 14.895 34.2987 14.6405 34.3398 14.3733C34.3945 14.106 34.4492 13.8515 34.504 13.6098L38.0343 13.9343C37.9522 14.3287 37.8701 14.7614 37.788 15.2322C37.7196 15.7031 37.6854 16.1485 37.6854 16.5684C37.6854 16.7338 37.6922 16.8929 37.7059 17.0456C37.7196 17.211 37.747 17.3637 37.788 17.5037C37.5144 17.6564 37.2065 17.7773 36.8644 17.8664C36.536 17.9555 36.2076 18 35.8792 18ZM39.4711 13.4189C39.8679 13.4189 40.21 13.2725 40.4974 12.9799C40.7984 12.6872 41.0515 12.299 41.2568 11.8155C41.4757 11.3192 41.6468 10.7847 41.7699 10.2121C41.8931 9.62672 41.982 9.04136 42.0368 8.45599C42.1052 7.8579 42.1394 7.31707 42.1394 6.83351C42.1394 6.45175 42.0778 6.12725 41.9547 5.86002C41.8315 5.58006 41.5784 5.44008 41.1952 5.44008C40.7984 5.44008 40.4632 5.56734 40.1895 5.82184C39.9295 6.07635 39.7174 6.39449 39.5532 6.77625C39.4027 7.15801 39.2932 7.53977 39.2248 7.92153L38.2396 12.9989C38.4175 13.1389 38.6159 13.2471 38.8348 13.3234C39.0674 13.3871 39.2795 13.4189 39.4711 13.4189Z" fill="black"/>
<path d="M48.6113 14.5642C47.9818 14.5642 47.4687 14.4178 47.0719 14.1251C46.6887 13.8197 46.4972 13.368 46.4972 12.7699C46.4972 12.5408 46.5177 12.2545 46.5587 11.9109C46.6135 11.5546 46.675 11.1856 46.7435 10.8038C46.8256 10.4093 46.9008 10.0403 46.9692 9.69671C47.0513 9.35313 47.1198 9.06681 47.1745 8.83775L48.0981 4.44751L51.7927 4.10392L50.2122 11.5482C50.1986 11.6501 50.178 11.7773 50.1507 11.93C50.1233 12.0827 50.1096 12.2227 50.1096 12.3499C50.1096 12.579 50.178 12.789 50.3149 12.9799C50.4517 13.158 50.6775 13.2534 50.9922 13.2662C50.8417 13.7116 50.5338 14.0361 50.0686 14.2397C49.6033 14.456 49.1176 14.5642 48.6113 14.5642ZM50.5201 2.88229C49.9317 2.88229 49.446 2.7614 49.0628 2.51962C48.6797 2.27784 48.4881 1.92789 48.4881 1.46978C48.4881 0.986214 48.6865 0.623541 49.0834 0.38176C49.4939 0.127253 49.9933 0 50.5817 0C51.1564 0 51.6285 0.127253 51.9979 0.38176C52.3674 0.623541 52.5521 0.973488 52.5521 1.4316C52.5521 1.91516 52.3537 2.27784 51.9569 2.51962C51.5737 2.7614 51.0948 2.88229 50.5201 2.88229Z" fill="black"/>
<path d="M52.2197 14.526L54.3133 4.44751L57.31 4.10392L57.0021 5.93637C57.3031 5.33828 57.7136 4.88017 58.2336 4.56204C58.7673 4.23118 59.3899 4.06575 60.1014 4.06575C60.8814 4.06575 61.4698 4.25663 61.8666 4.63839C62.2771 5.00742 62.4824 5.52916 62.4824 6.20361C62.4824 6.96713 62.2429 7.60339 61.764 8.11241C61.285 8.6087 60.6624 8.85684 59.8962 8.85684C59.6772 8.85684 59.4583 8.83139 59.2394 8.78049C59.0204 8.72959 58.8494 8.64051 58.7262 8.51326C58.9589 8.24602 59.1436 7.90244 59.2804 7.4825C59.4309 7.04984 59.5062 6.66808 59.5062 6.33722C59.5062 6.10817 59.4583 5.91728 59.3625 5.76458C59.2804 5.61188 59.1162 5.53552 58.8699 5.53552C58.6373 5.53552 58.4184 5.61188 58.2131 5.76458C58.0215 5.91728 57.8505 6.13362 57.7 6.41357C57.5494 6.68081 57.4126 7.0053 57.2895 7.38706C57.1663 7.76882 57.0637 8.18876 56.9816 8.64687L55.9964 14.1824L52.2197 14.526Z" fill="black"/>
<path d="M66.4171 14.5642C65.5824 14.5642 64.8435 14.4242 64.2004 14.1442C63.5709 13.8643 63.0783 13.438 62.7226 12.8653C62.3668 12.28 62.1889 11.5355 62.1889 10.632C62.1889 9.80488 62.3121 9.00318 62.5584 8.22694C62.8184 7.45069 63.2083 6.75079 63.7283 6.12725C64.262 5.49099 64.9393 4.98833 65.7603 4.6193C66.5813 4.25026 67.5528 4.06575 68.6749 4.06575C69.2633 4.06575 69.8038 4.13574 70.2964 4.27571C70.8027 4.40297 71.2132 4.63839 71.5279 4.98197C71.8426 5.31283 72 5.79003 72 6.41357C72 7.06257 71.7947 7.62248 71.3842 8.09332C70.9874 8.56416 70.399 8.93319 69.6191 9.20042C68.8528 9.46766 67.9155 9.62672 66.8071 9.67762C66.6292 9.67762 66.4445 9.67762 66.2529 9.67762C66.075 9.67762 65.904 9.67762 65.7398 9.67762C65.7261 9.83033 65.7124 9.9894 65.6987 10.1548C65.6851 10.3075 65.6782 10.4475 65.6782 10.5748C65.6782 11.1347 65.8082 11.5737 66.0682 11.8918C66.3282 12.1972 66.7797 12.3499 67.4229 12.3499C67.9565 12.3499 68.4833 12.2418 69.0033 12.0254C69.5233 11.8091 69.9133 11.491 70.1732 11.071C70.3648 11.1729 70.4948 11.3001 70.5632 11.4528C70.6453 11.5928 70.6864 11.7646 70.6864 11.9682C70.6864 12.4772 70.488 12.9289 70.0911 13.3234C69.708 13.7179 69.188 14.0233 68.5312 14.2397C67.8881 14.456 67.1834 14.5642 66.4171 14.5642ZM65.8629 8.81866C66.3419 8.81866 66.7729 8.75504 67.156 8.62778C67.5528 8.50053 67.8949 8.32237 68.1823 8.09332C68.4697 7.85154 68.6886 7.56522 68.8391 7.23436C68.9896 6.9035 69.0649 6.53446 69.0649 6.12725C69.0649 5.79639 68.9965 5.54189 68.8596 5.36373C68.7365 5.17285 68.5244 5.07741 68.2233 5.07741C67.9634 5.07741 67.7102 5.16013 67.4639 5.32556C67.2176 5.49099 66.9918 5.73277 66.7866 6.0509C66.595 6.36903 66.4171 6.76352 66.2529 7.23436C66.1024 7.69247 65.9724 8.22057 65.8629 8.81866Z" fill="black"/>
</svg>
