<svg width="129" height="32" viewBox="0 0 129 32" fill="none" xmlns="http://www.w3.org/2000/svg">
<g clip-path="url(#clip0_80_917)">
<path d="M16.0003 32C24.8371 32 32.0003 24.8368 32.0003 16V4.8C32.0003 3.52696 31.4946 2.30606 30.5944 1.40589C29.6943 0.505713 28.4734 0 27.2003 0L16.8003 0V7.0192C16.8003 8.6208 16.8979 10.28 17.7379 11.6432C18.3393 12.6202 19.1437 13.4564 20.0967 14.095C21.0497 14.7337 22.1289 15.1599 23.2611 15.3448L23.5675 15.3944C23.6938 15.4376 23.8035 15.5192 23.8811 15.6278C23.9588 15.7364 24.0005 15.8665 24.0005 16C24.0005 16.1335 23.9588 16.2636 23.8811 16.3722C23.8035 16.4808 23.6938 16.5624 23.5675 16.6056L23.2611 16.6552C21.6069 16.9254 20.0793 17.7085 18.894 18.8937C17.7088 20.0789 16.9258 21.6065 16.6555 23.2608L16.6059 23.5672C16.5628 23.6935 16.4812 23.8032 16.3726 23.8808C16.264 23.9585 16.1338 24.0002 16.0003 24.0002C15.8668 24.0002 15.7367 23.9585 15.6281 23.8808C15.5195 23.8032 15.4379 23.6935 15.3947 23.5672L15.3451 23.2608C15.1602 22.1286 14.734 21.0494 14.0953 20.0964C13.4566 19.1435 12.6205 18.339 11.6435 17.7376C10.2803 16.8976 8.62113 16.8 7.01953 16.8H0.0195312C0.437931 25.2648 7.43233 32 16.0003 32Z" fill="#0E1534"/>
<path d="M0 15.2H7.0192C8.6208 15.2 10.28 15.1024 11.6432 14.2624C12.7088 13.6058 13.6058 12.7088 14.2624 11.6432C15.1024 10.28 15.2 8.6208 15.2 7.0192V0H4.8C3.52696 0 2.30606 0.505713 1.40589 1.40589C0.505713 2.30606 0 3.52696 0 4.8L0 15.2ZM37.164 1.6C37.164 2.02435 36.9954 2.43131 36.6954 2.73137C36.3953 3.03143 35.9883 3.2 35.564 3.2C35.1397 3.2 34.7327 3.03143 34.4326 2.73137C34.1326 2.43131 33.964 2.02435 33.964 1.6C33.964 1.17565 34.1326 0.768687 34.4326 0.468629C34.7327 0.168571 35.1397 0 35.564 0C35.9883 0 36.3953 0.168571 36.6954 0.468629C36.9954 0.768687 37.164 1.17565 37.164 1.6ZM169.369 9.6832C173.842 9.6832 176 12.8072 176 16.4256V23.2216H171.319V17.232C171.319 15.592 170.721 14.2384 169.005 14.2384C167.289 14.2384 166.717 15.592 166.717 17.232V23.2208H162.036V17.232C162.036 15.592 161.464 14.2384 159.747 14.2384C158.031 14.2384 157.433 15.592 157.433 17.232V23.2208H152.753V16.4248C152.753 12.8064 154.91 9.6824 159.383 9.6824C161.828 9.6824 163.596 10.6456 164.402 12.2336C165.26 10.6456 167.133 9.6816 169.369 9.6816V9.6832ZM144.342 19.056C145.85 19.056 146.5 17.676 146.5 16.0352V10.2032H151.18V16.608C151.18 20.4352 148.944 23.612 144.342 23.612C139.738 23.612 137.502 20.436 137.502 16.608V10.2032H142.183V16.0352C142.183 17.6752 142.833 19.056 144.342 19.056ZM130.62 23.6376C127.682 23.6376 125.783 22.6224 124.665 20.644L128.046 18.7432C128.514 19.576 129.215 19.9928 130.386 19.9928C131.348 19.9928 131.79 19.6544 131.79 19.2376C131.79 17.6496 124.925 19.264 124.925 14.2136C124.925 11.7656 127.005 9.7872 130.542 9.7872C133.636 9.7872 135.326 11.2968 136.081 12.7552L132.7 14.6816C132.414 13.9008 131.53 13.432 130.646 13.432C129.97 13.432 129.606 13.7184 129.606 14.1088C129.606 15.7232 136.47 14.2392 136.47 19.1336C136.47 21.8672 133.792 23.6376 130.62 23.6376ZM114.266 29.2096H109.586V16.6864C109.586 12.7024 112.576 9.8128 116.737 9.8128C120.794 9.8128 123.888 12.9112 123.888 16.6864C123.888 20.852 121.131 23.612 116.997 23.612C116.034 23.612 115.073 23.3256 114.266 22.8824V29.2096ZM116.737 19.212C118.219 19.212 119.207 18.0664 119.207 16.712C119.207 15.3328 118.219 14.2128 116.737 14.2128C115.254 14.2128 114.266 15.3328 114.266 16.7128C114.266 18.0664 115.254 19.212 116.737 19.212ZM104.897 8.824C103.362 8.824 102.089 7.548 102.089 6.012C102.089 4.476 103.362 3.2 104.897 3.2C106.431 3.2 107.706 4.476 107.706 6.012C107.706 7.548 106.431 8.824 104.897 8.824ZM102.557 10.2032H107.238V23.2216H102.557V10.2032ZM93.576 23.612C89.5192 23.612 86.4248 20.488 86.4248 16.6864C86.4248 12.9112 89.5192 9.7872 93.576 9.7872C97.6328 9.7872 100.727 12.9112 100.727 16.6864C100.727 20.488 97.6328 23.612 93.576 23.612ZM93.576 19.212C95.0584 19.212 96.0464 18.0664 96.0464 16.712C96.0464 15.3328 95.0584 14.1872 93.576 14.1872C92.0936 14.1872 91.1056 15.3328 91.1056 16.712C91.1056 18.0664 92.0936 19.212 93.576 19.212ZM77.5864 29.6C74.3624 29.6 72.0216 28.168 70.8256 25.616L74.7 23.5336C75.116 24.4192 75.896 25.3304 77.508 25.3304C79.1992 25.3304 80.3168 24.2624 80.4472 22.388C79.8232 22.9352 78.8344 23.3512 77.3528 23.3512C73.7376 23.3512 70.8248 20.5656 70.8248 16.66C70.8248 12.8856 73.92 9.8128 77.9768 9.8128C82.1376 9.8128 85.128 12.7032 85.128 16.6864V21.8416C85.128 26.528 81.8768 29.6 77.5864 29.6ZM77.8984 18.952C79.3024 18.952 80.3688 17.988 80.3688 16.556C80.3688 15.1504 79.3032 14.2128 77.8984 14.2128C76.52 14.2128 75.428 15.1504 75.428 16.5568C75.428 17.9888 76.52 18.9512 77.8984 18.9512V18.952ZM62.8856 23.612C58.8288 23.612 55.7336 20.488 55.7336 16.6864C55.7336 12.9112 58.8288 9.7872 62.8856 9.7872C66.9416 9.7872 70.0368 12.9112 70.0368 16.6864C70.0368 20.488 66.9424 23.612 62.8856 23.612ZM62.8856 19.212C64.368 19.212 65.356 18.0664 65.356 16.712C65.356 15.3328 64.368 14.1872 62.8856 14.1872C61.4032 14.1872 60.4152 15.3328 60.4152 16.712C60.4152 18.0664 61.4032 19.212 62.8856 19.212ZM47.2104 5.648V18.7952H54.96V23.2216H46.56C43.596 23.2216 42.4 21.6592 42.4 19.1856V5.648H47.2104Z" fill="#0E1534"/>
</g>
<defs>
<clipPath id="clip0_80_917">
<rect width="176" height="32" fill="white"/>
</clipPath>
</defs>
</svg>
