<svg width="33" height="32" viewBox="0 0 33 32" fill="none" xmlns="http://www.w3.org/2000/svg">
<path d="M16.4997 8.5C16.4997 12.6421 13.1076 16 8.92321 16H1.34668V8.5C1.34668 4.35786 4.7388 1 8.92321 1C13.1076 1 16.4997 4.35786 16.4997 8.5Z" fill="#17CF97"/>
<path d="M16.5 23.5C16.5 19.3579 19.8921 16 24.0765 16H31.6531V23.5C31.6531 27.6421 28.2609 31 24.0765 31C19.8921 31 16.5 27.6421 16.5 23.5Z" fill="#17CF97"/>
<path d="M1.34668 23.5C1.34668 27.6421 4.7388 31 8.92321 31H16.4997V23.5C16.4997 19.3579 13.1076 16 8.92321 16C4.7388 16 1.34668 19.3579 1.34668 23.5Z" fill="#17CF97"/>
<path d="M31.6531 8.5C31.6531 4.35786 28.2609 1 24.0765 1H16.5V8.5C16.5 12.6421 19.8921 16 24.0765 16C28.2609 16 31.6531 12.6421 31.6531 8.5Z" fill="#17CF97"/>
</svg>
