<svg width="58" height="32" viewBox="0 0 58 32" fill="none" xmlns="http://www.w3.org/2000/svg">
<g clip-path="url(#clip0_80_889)">
<path d="M57.9955 11.381C58.0015 11.3365 58.0015 11.2915 57.9955 11.247C58.0012 11.2108 58.0012 11.1738 57.9955 11.1375L57.5658 8.00936C57.5039 7.63511 57.3381 7.28532 57.0871 6.9991L57.0134 6.9139L56.8785 6.78L49.4402 0.42632L49.6488 0.633257C49.4781 0.430714 49.2638 0.268708 49.0217 0.15917C48.7795 0.0496323 48.5156 -0.00465336 48.2496 0.000317934H45.991C45.6238 -0.0068977 45.2649 0.108891 44.9722 0.328962C44.6649 0.110217 44.2949 -0.00497983 43.9166 0.000317934H41.6581C41.3619 -0.00444771 41.0697 0.0684518 40.8111 0.211657C40.5524 0.354862 40.3365 0.563287 40.1852 0.815824C39.9519 1.17652 39.8643 1.6111 39.9397 2.03301L40.222 4.00483C40.035 3.8997 39.8233 3.84514 39.6083 3.84662H28.6717C28.2794 3.84906 27.896 3.9631 27.567 4.17524C27.2489 4.3727 26.9935 4.65543 26.8306 4.99074L25.9836 4.27262C25.6503 3.96677 25.2103 3.80099 24.7562 3.8101H7.59645C7.20267 3.81721 6.81764 3.9263 6.47951 4.12656C6.01691 4.39506 5.67789 4.83162 5.53435 5.34374L0.0844866 23.4189C-0.0173422 23.7167 -0.0273593 24.0379 0.0557182 24.3414C0.138796 24.6449 0.311205 24.917 0.550922 25.123C0.613385 25.1754 0.678971 25.2242 0.747318 25.269C0.747318 25.269 0.63683 25.1959 0.575458 25.1351L8.01382 31.501C8.32848 31.7882 8.73987 31.9488 9.16754 31.9513H26.4623C26.8573 31.9411 27.2426 31.8278 27.5793 31.6226C27.7698 31.5194 27.9401 31.3834 28.0826 31.221L28.1439 31.1358L28.2421 31.0141L28.3158 30.8802L29.1259 31.574C29.436 31.8498 29.8385 32.0016 30.2551 32H47.5867C47.9812 31.987 48.3658 31.8738 48.7037 31.6714C48.8898 31.5618 49.0592 31.4266 49.207 31.2697L49.2683 31.1845L49.3665 31.0628C49.4187 30.9858 49.4639 30.9043 49.5015 30.8193C49.5416 30.7455 49.5745 30.6681 49.5997 30.5881L54.5708 14.0831V13.937C54.577 13.8804 54.577 13.8233 54.5708 13.7666V13.6571C54.5768 13.6208 54.5768 13.5838 54.5708 13.5475C54.5764 13.4706 54.5764 13.3933 54.5708 13.3162H56.1666C56.3054 13.3289 56.445 13.3289 56.5838 13.3162H56.6944C56.7842 13.2897 56.8707 13.2529 56.9521 13.2067H57.0749L57.2958 13.0363L57.394 12.9633L57.5658 12.7442V12.6712L57.6886 12.4642C57.6817 12.424 57.6817 12.3828 57.6886 12.3426C57.6821 12.3228 57.6821 12.3014 57.6886 12.2817C57.7147 12.2103 57.7352 12.137 57.75 12.0626C57.7442 12.0386 57.7442 12.0135 57.75 11.9895C57.744 11.9533 57.744 11.9162 57.75 11.88C57.75 11.88 57.9955 11.4053 57.9955 11.381Z" fill="black"/>
<path d="M25.2589 5.19712C25.3241 5.25555 25.3696 5.33238 25.3893 5.41726C25.4092 5.50214 25.4022 5.59098 25.3695 5.67181L19.9319 23.7348C19.8634 23.932 19.7233 24.0969 19.5391 24.1973C19.3892 24.2968 19.2157 24.3555 19.0358 24.3677H1.75336C1.60576 24.3607 1.46594 24.3001 1.36057 24.1973C1.29789 24.1398 1.2539 24.0651 1.23422 23.9828C1.21454 23.9004 1.22008 23.8141 1.2501 23.7348L6.69997 5.67181C6.76276 5.47212 6.89844 5.30284 7.08047 5.19712C7.23286 5.10481 7.40555 5.05052 7.58373 5.03888H24.8661C25.0126 5.04028 25.153 5.09685 25.2589 5.19712ZM16.2372 20.0954L19.4899 9.31117H10.3823L7.14183 20.0954H16.2372ZM41.7558 5.37968C41.8148 5.44764 41.8885 5.50152 41.9714 5.53735C42.0543 5.57317 42.1442 5.59001 42.2346 5.58661H44.4808C44.5663 5.58744 44.6506 5.56664 44.7258 5.52617C44.801 5.48571 44.8645 5.42691 44.9104 5.35534C44.9502 5.29944 44.9784 5.23615 44.9932 5.16924C45.0079 5.10233 45.009 5.03317 44.9963 4.96585L44.5544 1.75249C44.5124 1.60377 44.4368 1.46644 44.3335 1.35082C44.2745 1.28287 44.2008 1.22898 44.118 1.19316C44.0351 1.15733 43.9451 1.1405 43.8548 1.1439H41.6086C41.523 1.14308 41.4387 1.16388 41.3635 1.20434C41.2884 1.2448 41.2248 1.3036 41.179 1.37517C41.093 1.54557 41.0562 1.65512 41.093 1.75249L41.5472 4.96585C41.5705 5.12232 41.6436 5.2673 41.7558 5.37968ZM48.8873 1.72815C48.8452 1.57942 48.7696 1.44209 48.6664 1.32648C48.6099 1.25877 48.5384 1.2049 48.4575 1.16901C48.3766 1.13313 48.2885 1.1162 48.1999 1.11956H45.9414C45.8573 1.11718 45.7741 1.13742 45.7006 1.17813C45.6272 1.21884 45.5662 1.27852 45.5241 1.35082C45.4424 1.4588 45.4071 1.59444 45.4259 1.72815L45.88 4.9415C45.9085 5.09632 45.9809 5.23987 46.0887 5.35534C46.1488 5.42197 46.2226 5.47495 46.3053 5.51066C46.3879 5.54637 46.4773 5.56397 46.5674 5.56225H48.8259C48.9099 5.56336 48.9925 5.54258 49.0658 5.50199C49.1391 5.4614 49.2003 5.40245 49.2433 5.33101C49.286 5.27655 49.3158 5.21328 49.3307 5.14589C49.3456 5.0785 49.345 5.00867 49.3292 4.9415L48.8873 1.72815ZM39.7796 6.59687L39.5587 5.01453H28.6713C28.5003 5.02388 28.3349 5.07853 28.1925 5.17277C28.1021 5.22165 28.0234 5.28941 27.962 5.37137C27.9006 5.45333 27.8578 5.54752 27.8366 5.64747L26.9283 8.66605C26.892 8.74149 26.8796 8.82613 26.8928 8.90869C26.906 8.99125 26.944 9.06789 27.0019 9.12861C27.1054 9.22509 27.2405 9.28133 27.3825 9.28685H40.6143L37.3616 20.0711H24.1665C23.9964 20.0749 23.8307 20.1255 23.6879 20.2171C23.5143 20.3265 23.3875 20.4955 23.3319 20.6918L22.4113 23.7105C22.3812 23.7879 22.3733 23.8721 22.3885 23.9537C22.4037 24.0353 22.4413 24.1112 22.4972 24.1729C22.5975 24.2759 22.7336 24.3369 22.8777 24.3433H40.2092C40.3885 24.3281 40.5613 24.2696 40.7125 24.1729C40.8937 24.072 41.0297 23.9068 41.093 23.7105L46.0764 7.20546H40.467C40.378 7.2072 40.2896 7.19081 40.2073 7.15732C40.125 7.12382 40.0505 7.07391 39.9883 7.0107C39.8868 6.90032 39.8151 6.76637 39.7796 6.62121V6.59687Z" fill="white"/>
</g>
<defs>
<clipPath id="clip0_80_889">
<rect width="58" height="32" fill="white"/>
</clipPath>
</defs>
</svg>
