<svg width="118" height="28" viewBox="0 0 118 28" fill="none" xmlns="http://www.w3.org/2000/svg">
<g clip-path="url(#clip0_80_866)">
<path fill-rule="evenodd" clip-rule="evenodd" d="M6.99258 1.75V28H0V1.75H6.99258Z" fill="#283841"/>
<path fill-rule="evenodd" clip-rule="evenodd" d="M10.4893 1.75H25.3485C30.1759 1.75 34.0893 5.66751 34.0893 10.5C34.0893 15.3325 30.1759 19.25 25.3485 19.25H17.4818V28H10.4893V1.75ZM17.4818 12.25H25.3485C26.314 12.25 27.0967 11.4665 27.0967 10.5C27.0967 9.53351 26.314 8.75 25.3485 8.75H17.4818V12.25Z" fill="#283841"/>
<path fill-rule="evenodd" clip-rule="evenodd" d="M60.3109 1.75V15.3125C60.3109 18.4536 62.8546 21 65.9924 21C69.1302 21 71.674 18.4536 71.674 15.3125V1.75H78.6667V15.3125C78.6667 22.3196 72.9922 28 65.9924 28C58.9927 28 53.3184 22.3196 53.3184 15.3125V1.75H60.3109Z" fill="#283841"/>
<path fill-rule="evenodd" clip-rule="evenodd" d="M36.7113 14C36.7113 7.2345 42.19 1.75 48.9484 1.75H50.6965V8.75H48.9484C46.0519 8.75 43.7039 11.1005 43.7039 14V14.875C43.7039 22.1237 37.8339 28 30.5928 28H29.7188V21H30.5928C33.972 21 36.7113 18.2577 36.7113 14.875V14Z" fill="#283841"/>
<path d="M118 2.625C118 4.07475 116.827 5.25 115.378 5.25C113.93 5.25 112.756 4.07475 112.756 2.625C112.756 1.17525 113.93 0 115.378 0C116.827 0 118 1.17525 118 2.625Z" fill="#283841"/>
<path d="M86.1752 27.9996L89.5121 14.0123L91.9929 22.4271C93.4717 27.446 100.573 27.446 102.053 22.4271L104.533 14.0123L107.87 27.9996H115.059L109.812 6.00527C108.565 0.774834 101.202 0.581173 99.681 5.73886L97.0229 14.7579L94.364 5.73887C92.844 0.581203 85.4805 0.774806 84.2328 6.00526L78.9863 27.9996H86.1752Z" fill="#283841"/>
</g>
<defs>
<clipPath id="clip0_80_866">
<rect width="118" height="28" fill="white"/>
</clipPath>
</defs>
</svg>
