<svg width="131" height="32" viewBox="0 0 131 32" fill="none" xmlns="http://www.w3.org/2000/svg">
<g clip-path="url(#clip0_80_873)">
<path d="M38.4248 22.5963H47.7445V19.7865H41.7372V9.20312H38.4248V22.5963Z" fill="#3C2B1F"/>
<path d="M53.2662 20.7238C51.9375 20.7238 51.2451 19.5625 51.2451 17.8204C51.2451 16.0784 51.9375 14.8983 53.2662 14.8983C54.5949 14.8983 55.3061 16.0784 55.3061 17.8204C55.3061 19.5625 54.5949 20.7238 53.2662 20.7238ZM53.2849 22.8967C56.3728 22.8967 58.3939 20.7051 58.3939 17.8204C58.3939 14.9358 56.3728 12.7441 53.2849 12.7441C50.2158 12.7441 48.1572 14.9358 48.1572 17.8204C48.1572 20.7051 50.2158 22.8967 53.2849 22.8967Z" fill="#3C2B1F"/>
<path d="M63.7389 25.9137C65.1612 25.9137 66.4151 25.5952 67.2572 24.846C68.0245 24.1529 68.5298 23.1039 68.5298 21.6616V13.0075H65.6104V14.0378H65.5729C65.0115 13.2323 64.1506 12.7266 62.8781 12.7266C60.5014 12.7266 58.8545 14.7121 58.8545 17.5219C58.8545 20.4628 60.8569 22.0737 63.0091 22.0737C64.1694 22.0737 64.8992 21.6054 65.4606 20.9685H65.5355V21.9238C65.5355 23.0852 64.9928 23.7595 63.7015 23.7595C62.6909 23.7595 62.1856 23.3287 62.0172 22.823H59.0603C59.3598 24.8272 61.1002 25.9137 63.7389 25.9137ZM63.7202 19.8071C62.5786 19.8071 61.8301 18.8706 61.8301 17.4282C61.8301 15.9671 62.5786 15.0306 63.7202 15.0306C64.9928 15.0306 65.6665 16.117 65.6665 17.4095C65.6665 18.7582 65.0489 19.8071 63.7202 19.8071Z" fill="#3C2B1F"/>
<path d="M74.5328 20.7238C73.2041 20.7238 72.5117 19.5625 72.5117 17.8204C72.5117 16.0784 73.2041 14.8983 74.5328 14.8983C75.8615 14.8983 76.5727 16.0784 76.5727 17.8204C76.5727 19.5625 75.8615 20.7238 74.5328 20.7238ZM74.5515 22.8967C77.6394 22.8967 79.6601 20.7051 79.6601 17.8204C79.6601 14.9358 77.6394 12.7441 74.5515 12.7441C71.4824 12.7441 69.4238 14.9358 69.4238 17.8204C69.4238 20.7051 71.4824 22.8967 74.5515 22.8967Z" fill="#3C2B1F"/>
<path d="M80.5508 22.5963H83.6012V13.0057H80.5508V22.5963ZM80.5508 11.6757H83.6012V9.20312H80.5508V11.6757Z" fill="#3C2B1F"/>
<path d="M84.9248 25.7619H87.9752V21.6034H88.0127C88.6115 22.4089 89.4911 22.8959 90.7262 22.8959C93.2339 22.8959 94.8995 20.9104 94.8995 17.8009C94.8995 14.9162 93.3462 12.7246 90.8011 12.7246C89.4911 12.7246 88.5554 13.3053 87.9004 14.167H87.8442V13.0056H84.9248V25.7619ZM89.9402 20.5357C88.6302 20.5357 87.8817 19.468 87.8817 17.9133C87.8817 16.3586 88.5554 15.1785 89.8841 15.1785C91.1941 15.1785 91.8117 16.2649 91.8117 17.9133C91.8117 19.543 91.1005 20.5357 89.9402 20.5357Z" fill="#3C2B1F"/>
<path d="M99.8659 22.8979C102.374 22.8979 104.226 21.8114 104.226 19.7135C104.226 17.2596 102.243 16.8288 100.558 16.5478C99.3419 16.3231 98.2565 16.2294 98.2565 15.5551C98.2565 14.9556 98.8366 14.6747 99.5852 14.6747C100.427 14.6747 101.007 14.9369 101.12 15.7986H103.927C103.777 13.9067 102.317 12.7266 99.6039 12.7266C97.3395 12.7266 95.4681 13.7755 95.4681 15.7986C95.4681 18.0464 97.2459 18.4959 98.9115 18.7769C100.184 19.0017 101.344 19.0953 101.344 19.957C101.344 20.5751 100.764 20.9123 99.8472 20.9123C98.8366 20.9123 98.2003 20.444 98.0881 19.4887H95.2061C95.2996 21.6054 97.0588 22.8979 99.8659 22.8979Z" fill="#3C2B1F"/>
<path d="M108.37 22.8775C109.698 22.8775 110.54 22.353 111.233 21.4164H111.289V22.5965H114.208V13.0059H111.158V18.3631C111.158 19.5058 110.522 20.2925 109.474 20.2925C108.501 20.2925 108.033 19.7118 108.033 18.6628V13.0059H105.001V19.2997C105.001 21.4351 106.161 22.8775 108.37 22.8775Z" fill="#3C2B1F"/>
<path d="M115.536 22.5982H118.587V17.2222C118.587 16.0795 119.148 15.2741 120.102 15.2741C121.019 15.2741 121.45 15.8735 121.45 16.9037V22.5982H124.5V17.2222C124.5 16.0795 125.043 15.2741 126.016 15.2741C126.933 15.2741 127.364 15.8735 127.364 16.9037V22.5982H130.414V16.3605C130.414 14.2064 129.329 12.7266 127.158 12.7266C125.923 12.7266 124.893 13.2511 124.145 14.4124H124.107C123.621 13.3822 122.666 12.7266 121.412 12.7266C120.028 12.7266 119.111 13.3822 118.512 14.375H118.456V13.0075H115.536V22.5982Z" fill="#3C2B1F"/>
<path d="M19.8133 1.54323L16.7465 0.720703L14.162 10.375L11.8287 1.65904L8.76185 2.48156L11.2828 11.8985L5.00368 5.61356L2.75859 7.86074L9.64602 14.7546L1.06883 12.4542L0.24707 15.5239L9.61873 18.0374C9.51143 17.5741 9.45467 17.0915 9.45467 16.5956C9.45467 13.0852 12.2977 10.2396 15.8047 10.2396C19.3118 10.2396 22.1548 13.0852 22.1548 16.5956C22.1548 17.0883 22.0987 17.568 21.9928 18.0285L30.5099 20.3127L31.3316 17.2431L21.9227 14.7196L30.5004 12.419L29.6786 9.34936L20.2701 11.8727L26.5492 5.58776L24.3041 3.34059L17.5123 10.1388L19.8133 1.54323Z" fill="#F97316"/>
<path d="M21.985 18.0645C21.7221 19.1771 21.1669 20.1767 20.4053 20.9775L26.5755 27.1536L28.8206 24.9064L21.985 18.0645Z" fill="#F97316"/>
<path d="M20.3424 21.041C19.5715 21.8291 18.5973 22.4172 17.5049 22.7202L19.7501 31.1074L22.8169 30.2848L20.3424 21.041Z" fill="#F97316"/>
<path d="M17.3908 22.7515C16.884 22.882 16.3527 22.9513 15.8053 22.9513C15.2187 22.9513 14.6507 22.8717 14.1115 22.7227L11.8643 31.1174L14.9311 31.9399L17.3908 22.7515Z" fill="#F97316"/>
<path d="M14.0034 22.6923C12.9277 22.3742 11.9708 21.7786 11.2157 20.9883L5.03027 27.1795L7.27536 29.4267L14.0034 22.6923Z" fill="#F97316"/>
<path d="M11.1641 20.9317C10.4219 20.1364 9.88134 19.1502 9.62401 18.0547L1.0791 20.3464L1.90085 23.4161L11.1641 20.9317Z" fill="#F97316"/>
</g>
<defs>
<clipPath id="clip0_80_873">
<rect width="131" height="32" fill="white"/>
</clipPath>
</defs>
</svg>
