<svg width="123" height="28" viewBox="0 0 123 28" fill="none" xmlns="http://www.w3.org/2000/svg">
<g clip-path="url(#clip0_80_910)">
<path fill-rule="evenodd" clip-rule="evenodd" d="M10.483 19.6C9.5562 19.6 8.66741 19.2313 8.0121 18.5749C7.35679 17.9185 6.98864 17.0283 6.98864 16.1V0H0V16.1C0 21.8988 4.69357 26.6 10.483 26.6H18.1705V19.6H10.483ZM31.4489 7C30.6229 7 29.805 7.16295 29.0419 7.47956C28.2788 7.79616 27.5854 8.26022 27.0013 8.84523C26.4173 9.43024 25.954 10.1247 25.6379 10.8891C25.3218 11.6534 25.1591 12.4727 25.1591 13.3C25.1591 14.1273 25.3218 14.9466 25.6379 15.7109C25.954 16.4753 26.4173 17.1698 27.0013 17.7548C27.5854 18.3398 28.2788 18.8038 29.0419 19.1204C29.805 19.437 30.6229 19.6 31.4489 19.6C33.117 19.6 34.7168 18.9363 35.8964 17.7548C37.076 16.5733 37.7386 14.9709 37.7386 13.3C37.7386 11.6291 37.076 10.0267 35.8964 8.84523C34.7168 7.66375 33.117 7 31.4489 7ZM18.1705 13.3C18.1705 5.9549 24.1157 0 31.4489 0C38.782 0 44.7273 5.9549 44.7273 13.3C44.7273 20.6451 38.782 26.6 31.4489 26.6C24.1157 26.6 18.1705 20.6451 18.1705 13.3ZM106.926 7C105.258 7 103.658 7.66375 102.479 8.84523C101.299 10.0267 100.636 11.6291 100.636 13.3C100.636 14.9709 101.299 16.5733 102.479 17.7548C103.658 18.9363 105.258 19.6 106.926 19.6C108.594 19.6 110.194 18.9363 111.374 17.7548C112.553 16.5733 113.216 14.9709 113.216 13.3C113.216 11.6291 112.553 10.0267 111.374 8.84523C110.194 7.66375 108.594 7 106.926 7ZM93.6477 13.3C93.6477 5.9549 99.593 0 106.926 0C114.259 0 120.205 5.9549 120.205 13.3C120.205 20.6451 114.259 26.6 106.926 26.6C99.593 26.6 93.6477 20.6451 93.6477 13.3ZM59.4034 0C52.0702 0 46.125 5.9549 46.125 13.3C46.125 20.6451 52.0702 26.6 59.4034 26.6H78.9716C80.3476 26.6 81.6748 26.39 82.923 26.0008L86.6591 28L90.6901 20.4372C91.7141 18.512 92.2498 16.3641 92.25 14.1827V13.3C92.25 5.9549 86.3048 0 78.9716 0H59.4034ZM85.2614 13.3C85.2614 11.6291 84.5987 10.0267 83.4191 8.84523C82.2396 7.66375 80.6397 7 78.9716 7H59.4034C58.5774 7 57.7595 7.16295 56.9964 7.47956C56.2333 7.79616 55.5399 8.26022 54.9559 8.84523C54.3718 9.43024 53.9085 10.1247 53.5924 10.8891C53.2763 11.6534 53.1136 12.4727 53.1136 13.3C53.1136 14.1273 53.2763 14.9466 53.5924 15.7109C53.9085 16.4753 54.3718 17.1698 54.9559 17.7548C55.5399 18.3398 56.2333 18.8038 56.9964 19.1204C57.7595 19.437 58.5774 19.6 59.4034 19.6H78.9716C80.6313 19.6 82.2238 18.943 83.4019 17.7721C84.5801 16.6012 85.2485 15.0114 85.2614 13.349V13.3Z" fill="#283841"/>
<path d="M123 1.75C123 2.21413 122.816 2.65925 122.488 2.98744C122.161 3.31563 121.716 3.5 121.253 3.5C120.79 3.5 120.345 3.31563 120.018 2.98744C119.69 2.65925 119.506 2.21413 119.506 1.75C119.506 1.28587 119.69 0.840752 120.018 0.512563C120.345 0.184374 120.79 0 121.253 0C121.716 0 122.161 0.184374 122.488 0.512563C122.816 0.840752 123 1.28587 123 1.75Z" fill="#283841"/>
</g>
<defs>
<clipPath id="clip0_80_910">
<rect width="123" height="28" fill="white"/>
</clipPath>
</defs>
</svg>
