<svg width="162" height="32" viewBox="0 0 162 32" fill="none" xmlns="http://www.w3.org/2000/svg">
<g clip-path="url(#clip0_80_892)">
<path fill-rule="evenodd" clip-rule="evenodd" d="M20.4952 9.34824C19.1763 8.4692 17.6258 8 16.0396 8V0C19.2119 0 22.313 0.938384 24.9507 2.69649C27.5884 4.45458 29.6442 6.95345 30.8583 9.87704C32.0722 12.8006 32.3899 16.0178 31.771 19.1214C31.1521 22.2251 29.6245 25.0761 27.3813 27.3137C25.1382 29.5514 22.2801 31.0752 19.1688 31.6926C16.0574 32.3099 12.8323 31.993 9.90149 30.7821C6.97065 29.571 4.46561 27.5203 2.70316 24.8891C0.940707 22.2579 0 19.1645 0 16H8.0198C8.0198 17.5822 8.49016 19.129 9.37138 20.4446C10.2526 21.7602 11.5051 22.7855 12.9706 23.391C14.436 23.9966 16.0485 24.155 17.6042 23.8462C19.1599 23.5376 20.5888 22.7757 21.7105 21.6569C22.8321 20.538 23.5959 19.1126 23.9053 17.5607C24.2148 16.0089 24.056 14.4003 23.4489 12.9386C22.8419 11.4767 21.814 10.2273 20.4952 9.34824Z" fill="#007DFC"/>
<path fill-rule="evenodd" clip-rule="evenodd" d="M8.0198 4.22794e-06C8.0198 1.05058 7.81236 2.09087 7.40933 3.06148C7.00629 4.03207 6.41556 4.91399 5.67085 5.65686C4.92615 6.39973 4.04206 6.989 3.06905 7.39104C2.09603 7.79308 1.05317 8 3.50554e-07 8L0 16C2.10635 16 4.19207 15.5862 6.13809 14.7821C8.08412 13.978 9.85232 12.7994 11.3417 11.3137C12.8311 9.828 14.0126 8.06416 14.8187 6.12294C15.6247 4.18172 16.0396 2.10115 16.0396 0L8.0198 4.22794e-06Z" fill="#007DFC"/>
<path d="M100.744 11.5625H96.8525V23.8923H100.744V11.5625Z" fill="#043E79"/>
<path d="M97.2856 9.25289C97.6922 9.65881 98.2007 9.86177 98.811 9.86177C99.4213 9.86177 99.9217 9.65881 100.312 9.25289C100.702 8.83009 100.897 8.32265 100.897 7.73069C100.897 7.12183 100.702 6.6144 100.312 6.2085C99.9217 5.80256 99.4213 5.59961 98.811 5.59961C98.2007 5.59961 97.6922 5.80256 97.2856 6.2085C96.8951 6.6144 96.7002 7.12183 96.7002 7.73069C96.7002 8.32265 96.8951 8.83009 97.2856 9.25289Z" fill="#043E79"/>
<path d="M41.0264 23.8918V5.98047H45.0193V20.3907H52.9799V23.8918H41.0264Z" fill="#043E79"/>
<path fill-rule="evenodd" clip-rule="evenodd" d="M60.1704 24.1712C58.8988 24.1712 57.7458 23.8922 56.7115 23.334C55.6942 22.759 54.8889 21.981 54.2954 20.9999C53.702 20.019 53.4053 18.9196 53.4053 17.7018C53.4053 16.4841 53.702 15.3932 54.2954 14.4291C54.8889 13.465 55.6942 12.7039 56.7115 12.1458C57.7288 11.5707 58.8818 11.2832 60.1704 11.2832C61.459 11.2832 62.6119 11.5623 63.6292 12.1204C64.6465 12.6786 65.452 13.4482 66.0454 14.4291C66.6388 15.3932 66.9356 16.4841 66.9356 17.7018C66.9356 18.9196 66.6388 20.019 66.0454 20.9999C65.452 21.981 64.6465 22.759 63.6292 23.334C62.6119 23.8922 61.459 24.1712 60.1704 24.1712ZM60.1704 20.6448C60.7299 20.6448 61.2216 20.5264 61.6455 20.2896C62.0694 20.0359 62.3915 19.6892 62.6119 19.2494C62.8493 18.7928 62.968 18.2769 62.968 17.7018C62.968 17.1268 62.8493 16.6278 62.6119 16.205C62.3745 15.7653 62.044 15.427 61.62 15.1902C61.2131 14.9365 60.7299 14.8097 60.1704 14.8097C59.6278 14.8097 59.1446 14.9365 58.7207 15.1902C58.2969 15.427 57.9662 15.7653 57.7288 16.205C57.4914 16.6448 57.3728 17.1522 57.3728 17.7272C57.3728 18.2854 57.4914 18.7928 57.7288 19.2494C57.9662 19.6892 58.2969 20.0359 58.7207 20.2896C59.1446 20.5264 59.6278 20.6448 60.1704 20.6448Z" fill="#043E79"/>
<path fill-rule="evenodd" clip-rule="evenodd" d="M70.0178 28.7125C71.052 29.186 72.2473 29.4228 73.6038 29.4228C74.9263 29.4228 76.1047 29.1607 77.1389 28.6364C78.1733 28.112 78.987 27.3848 79.5805 26.4546C80.1739 25.5244 80.471 24.425 80.471 23.1564V11.5624H76.6557V12.3908C76.3719 12.1525 76.0497 11.9525 75.6893 11.7907C75.028 11.4693 74.2735 11.3086 73.4258 11.3086C72.2898 11.3086 71.2809 11.5792 70.3993 12.1204C69.5175 12.6448 68.8224 13.372 68.3137 14.3023C67.805 15.2156 67.5508 16.2473 67.5508 17.3975C67.5508 18.5307 67.805 19.5624 68.3137 20.4926C68.8224 21.4228 69.5175 22.1586 70.3993 22.6998C71.2809 23.241 72.2898 23.5116 73.4258 23.5116C74.2565 23.5116 75.011 23.351 75.6893 23.0296C76.0178 22.874 76.3145 22.6905 76.5794 22.4792V23.258C76.5794 24.1205 76.2997 24.7886 75.7401 25.2622C75.1976 25.7358 74.4431 25.9725 73.4766 25.9725C72.6967 25.9725 72.027 25.8372 71.4674 25.5666C70.9249 25.296 70.4331 24.8985 69.9923 24.3742L67.6016 26.759C68.195 27.6047 69.0004 28.2559 70.0178 28.7125ZM75.5621 19.7061C75.1721 19.9429 74.7059 20.0613 74.1633 20.0613C73.6207 20.0613 73.146 19.9429 72.739 19.7061C72.349 19.4693 72.0439 19.148 71.8235 18.742C71.603 18.3192 71.4928 17.871 71.4928 17.3975C71.4928 16.89 71.603 16.4334 71.8235 16.0275C72.0439 15.6216 72.3575 15.3002 72.7645 15.0634C73.1714 14.8266 73.6377 14.7082 74.1633 14.7082C74.7059 14.7082 75.1721 14.8266 75.5621 15.0634C75.969 15.3002 76.2742 15.6216 76.4777 16.0275C76.6981 16.4334 76.8083 16.89 76.8083 17.3975C76.8083 17.9048 76.6981 18.3615 76.4777 18.7674C76.2742 19.1564 75.969 19.4693 75.5621 19.7061Z" fill="#043E79"/>
<path fill-rule="evenodd" clip-rule="evenodd" d="M88.66 24.1712C87.3881 24.1712 86.2348 23.8922 85.2011 23.334C84.1834 22.759 83.3782 21.981 82.7847 20.9999C82.1913 20.019 81.8945 18.9196 81.8945 17.7018C81.8945 16.4841 82.1913 15.3932 82.7847 14.4291C83.3782 13.465 84.1834 12.7039 85.2011 12.1458C86.218 11.5707 87.3713 11.2832 88.66 11.2832C89.948 11.2832 91.1013 11.5623 92.1182 12.1204C93.1359 12.6786 93.9411 13.4482 94.5345 14.4291C95.128 15.3932 95.4247 16.4841 95.4247 17.7018C95.4247 18.9196 95.128 20.019 94.5345 20.9999C93.9411 21.981 93.1359 22.759 92.1182 23.334C91.1013 23.8922 89.948 24.1712 88.66 24.1712ZM88.66 20.6448C89.219 20.6448 89.7106 20.5264 90.1349 20.2896C90.5583 20.0359 90.8807 19.6892 91.1013 19.2494C91.3387 18.7928 91.4573 18.2769 91.4573 17.7018C91.4573 17.1268 91.3387 16.6278 91.1013 16.205C90.8639 15.7653 90.5335 15.427 90.1092 15.1902C89.7026 14.9365 89.219 14.8097 88.66 14.8097C88.1171 14.8097 87.6335 14.9365 87.2101 15.1902C86.7858 15.427 86.4554 15.7653 86.218 16.205C85.9806 16.6448 85.8619 17.1522 85.8619 17.7272C85.8619 18.2854 85.9806 18.7928 86.218 19.2494C86.4554 19.6892 86.7858 20.0359 87.2101 20.2896C87.6335 20.5264 88.1171 20.6448 88.66 20.6448Z" fill="#043E79"/>
<path fill-rule="evenodd" clip-rule="evenodd" d="M110.096 24.1459C109.266 24.1459 108.503 23.9852 107.808 23.6639C107.442 23.4948 107.111 23.2928 106.816 23.0581V29.0931H102.976V11.5624H106.867V12.4133C107.149 12.183 107.463 11.9839 107.808 11.816C108.503 11.4777 109.266 11.3086 110.096 11.3086C111.266 11.3086 112.301 11.5877 113.199 12.1459C114.115 12.704 114.827 13.4651 115.336 14.4292C115.862 15.3932 116.124 16.4926 116.124 17.7272C116.124 18.962 115.862 20.0613 115.336 21.0254C114.827 21.9895 114.115 22.7505 113.199 23.3087C112.301 23.8668 111.266 24.1459 110.096 24.1459ZM109.385 20.6448C109.944 20.6448 110.428 20.518 110.834 20.2643C111.258 20.0106 111.589 19.6638 111.826 19.2241C112.064 18.7844 112.182 18.2854 112.182 17.7272C112.182 17.1522 112.064 16.6448 111.826 16.2051C111.589 15.7653 111.258 15.4271 110.834 15.1903C110.428 14.9365 109.953 14.8097 109.41 14.8097C108.868 14.8097 108.384 14.9365 107.961 15.1903C107.553 15.4271 107.232 15.7653 106.994 16.2051C106.757 16.6448 106.638 17.1522 106.638 17.7272C106.638 18.2854 106.748 18.7844 106.969 19.2241C107.206 19.6638 107.536 20.0106 107.961 20.2643C108.384 20.518 108.859 20.6448 109.385 20.6448Z" fill="#043E79"/>
<path d="M119.933 23.9174C120.645 24.1035 121.365 24.1965 122.094 24.1965C123.637 24.1965 124.858 23.8414 125.757 23.131C126.672 22.4206 127.13 21.465 127.13 20.2642C127.13 19.4862 126.986 18.8603 126.698 18.3868C126.41 17.8963 126.037 17.5073 125.579 17.2198C125.121 16.9322 124.637 16.7038 124.129 16.5347C123.62 16.3656 123.137 16.2218 122.68 16.1034C122.222 15.985 121.849 15.8498 121.56 15.6975C121.272 15.5453 121.128 15.3423 121.128 15.0886C121.128 14.8518 121.238 14.6742 121.458 14.5558C121.679 14.4206 122.009 14.353 122.45 14.353C122.908 14.353 123.374 14.4459 123.849 14.632C124.341 14.818 124.782 15.1394 125.171 15.5961L127.384 13.3635C126.825 12.6531 126.096 12.1203 125.197 11.7652C124.316 11.3931 123.349 11.207 122.298 11.207C121.298 11.207 120.424 11.3762 119.679 11.7144C118.932 12.0527 118.355 12.5178 117.949 13.1098C117.542 13.6848 117.338 14.3698 117.338 15.1648C117.338 15.909 117.483 16.5263 117.771 17.0168C118.059 17.4903 118.432 17.8625 118.889 18.133C119.347 18.4037 119.831 18.6151 120.339 18.7673C120.848 18.9195 121.331 19.0633 121.789 19.1986C122.247 19.317 122.62 19.4608 122.908 19.6299C123.214 19.7822 123.366 20.0105 123.366 20.3149C123.366 20.5517 123.239 20.7377 122.984 20.873C122.747 21.0083 122.4 21.076 121.942 21.076C121.28 21.076 120.67 20.9576 120.111 20.7208C119.551 20.4671 119.068 20.1204 118.661 19.6806L116.448 21.9132C116.872 22.3698 117.381 22.7758 117.974 23.131C118.585 23.4692 119.238 23.7314 119.933 23.9174Z" fill="#043E79"/>
<path d="M134.226 24.1714C133.09 24.1714 132.082 23.9431 131.2 23.4864C130.335 23.0128 129.657 22.3701 129.166 21.5583C128.673 20.7295 128.428 19.7824 128.428 18.7168V11.5625H132.319V18.6661C132.319 19.0889 132.386 19.4526 132.523 19.757C132.675 20.0615 132.896 20.2983 133.183 20.4674C133.472 20.6365 133.819 20.7211 134.226 20.7211C134.803 20.7211 135.261 20.5435 135.6 20.1883C135.939 19.8162 136.108 19.3088 136.108 18.6661V11.5625H140V18.6915C140 19.7739 139.754 20.7295 139.262 21.5583C138.77 22.3701 138.092 23.0128 137.227 23.4864C136.363 23.9431 135.362 24.1714 134.226 24.1714Z" fill="#043E79"/>
<path d="M145.825 11.5624H141.934V23.8922H145.825V16.6871C145.825 16.2643 145.91 15.9091 146.079 15.6216C146.266 15.334 146.512 15.1141 146.817 14.962C147.122 14.7928 147.47 14.7082 147.859 14.7082C148.419 14.7082 148.885 14.8858 149.258 15.241C149.649 15.5792 149.844 16.0613 149.844 16.6871V23.8922H153.735V16.6871C153.735 16.2643 153.82 15.9091 153.989 15.6216C154.176 15.334 154.421 15.1141 154.727 14.962C155.032 14.7928 155.38 14.7082 155.769 14.7082C156.329 14.7082 156.795 14.8858 157.168 15.241C157.558 15.5792 157.753 16.0613 157.753 16.6871V23.8922H161.645V16.2558C161.645 15.2241 161.424 14.3446 160.983 13.6173C160.559 12.8731 159.974 12.3065 159.228 11.9176C158.499 11.5116 157.66 11.3086 156.71 11.3086C155.744 11.3086 154.87 11.52 154.091 11.9429C153.584 12.2123 153.141 12.56 152.762 12.9859C152.408 12.5404 151.978 12.1758 151.471 11.8921C150.793 11.5032 150.022 11.3086 149.157 11.3086C148.241 11.3086 147.419 11.5032 146.69 11.8921C146.373 12.054 146.085 12.2478 145.825 12.4736V11.5624Z" fill="#043E79"/>
</g>
<defs>
<clipPath id="clip0_80_892">
<rect width="162" height="32" fill="white"/>
</clipPath>
</defs>
</svg>
